<svg version="1.2" xmlns="http://www.w3.org/2000/svg" viewBox="0 0 750 500" width="750" height="500"><defs><linearGradient id="P" gradientUnits="userSpaceOnUse"/><linearGradient id="g1" x1="752" y1="0" x2="752" y2="500" href="#P"><stop stop-color="#f0fbfb"/><stop offset="1" stop-color="#e2d9d8"/></linearGradient><linearGradient id="g2" x1="229.6" y1="283" x2="732.2" y2="283" href="#P"><stop stop-color="#c5d5dd"/><stop offset="1" stop-color="#d3dbd9"/></linearGradient><linearGradient id="g3" x1="-220.1" y1="411.5" x2="282.6" y2="411.5" href="#P"><stop stop-color="#c5d5dd"/><stop offset="1" stop-color="#d3dbd9"/></linearGradient><linearGradient id="g4" x1="399.9" y1="-270.7" x2="902.5" y2="-270.7" href="#P"><stop stop-color="#c5d5dd"/><stop offset="1" stop-color="#d3dbd9"/></linearGradient><linearGradient id="g5" x1="0" y1="-2" x2="495.8" y2="-2" href="#P"><stop stop-color="#c5d5dd"/><stop offset="1" stop-color="#d3dbd9"/></linearGradient><linearGradient id="g6" x1="161.3" y1="356.1" x2="647.3" y2="356.1" href="#P"><stop stop-color="#c5d5dd"/><stop offset="1" stop-color="#d3dbd9"/></linearGradient></defs><style>.a{fill:url(#g1)}.b{opacity:.2;mix-blend-mode:multiply;fill:url(#g2)}.c{opacity:.2;mix-blend-mode:multiply;fill:url(#g3)}.d{opacity:.2;mix-blend-mode:multiply;fill:url(#g4)}.e{opacity:.2;mix-blend-mode:multiply;fill:url(#g5)}.f{mix-blend-mode:overlay;fill:#f8e6cb}.g{mix-blend-mode:soft-light;fill:url(#g6)}.h{fill:none;stroke:#d8d8d8}</style><path class="a" d="m750 500h-750v-500h750z"/><path class="b" d="m732.2 586.4l-37.5 19.9c-25.9-11.5-55.9-9.1-83.1-1.4-27.2 7.7-52.7 20.4-79.5 29.3-54.7 18.3-115.4 20.4-169.9 1.7-54.5-18.8-102.1-59.2-125.3-112-23.3-52.7-20.2-117.3 11.5-165.4 31.7-48.2 92.5-76.7 149.2-66.3 23.9 4.4 46.9 15.1 71.2 14.1 23.6-1 45.2-12.9 68.3-18.3 36.4-8.5 76.5 0.7 105.7 24 29.3 23.3 47.2 60.1 47.7 97.5 0.3 22.9-5.5 45.3-9.5 67.9-4 22.5-6.1 46.3 1.5 67.9 7.5 21.6 26.9 40.5 49.7 41.1z"/><path class="c" d="m282.6 714.9l-37.5 19.8c-25.9-11.4-55.9-9-83.1-1.3-27.2 7.7-52.8 20.4-79.6 29.3-54.7 18.2-115.3 20.4-169.8 1.7-54.6-18.8-102.2-59.2-125.4-112-23.2-52.8-20.2-117.3 11.5-165.5 31.8-48.1 92.5-76.6 149.2-66.2 23.9 4.4 47 15.1 71.2 14.1 23.7-1 45.3-13 68.3-18.3 36.5-8.5 76.5 0.7 105.8 24 29.2 23.3 47.2 60.1 47.7 97.5 0.3 22.9-5.6 45.3-9.5 67.9-4 22.5-6.1 46.3 1.4 67.9 7.6 21.6 26.9 40.5 49.8 41.1z"/><path class="d" d="m902.5 32.7l-37.5 19.9c-25.8-11.5-55.9-9.1-83.1-1.4-27.2 7.7-52.7 20.4-79.5 29.3-54.7 18.3-115.4 20.4-169.9 1.7-54.5-18.8-102.1-59.2-125.3-112-23.2-52.7-20.2-117.3 11.5-165.4 31.7-48.2 92.5-76.7 149.2-66.3 23.9 4.4 46.9 15.1 71.2 14.1 23.6-1 45.3-12.9 68.3-18.3 36.4-8.5 76.5 0.7 105.7 24 29.3 23.3 47.2 60.1 47.7 97.5 0.3 22.9-5.5 45.3-9.5 67.9-4 22.5-6 46.3 1.5 67.9 7.5 21.6 26.9 40.5 49.7 41.1z"/><path class="e" d="m495.8 0c-4.2 25.2-14.4 49.4-30.1 69.6-31 39.8-82.3 62.9-132.7 59.7-5.3-0.3-10.7-1-16.1-1.7-28.3-3.8-57.1-10.7-82.5 1.1-21.5 10.1-35.3 31.6-54.7 45.2-25.5 17.9-59.7 20.8-89.3 11.3-29.6-9.6-54.6-30.5-72.9-55.6-6.4-8.7-12-17.9-17.5-27.1v-102.5z"/><path class="f" d="m609.2 0c-6.2 5.8-13.5 10.6-21.6 13.7-14.6 5.6-31.1 6.7-44.3 15-17.5 11-25.6 32.1-30 52.3-4.4 20.1-6.4 41.3-16.3 59.4-20.6 37.5-71.8 50.4-112.4 36.8-27-9.1-49.5-27.3-67.7-49.6-9.1-11.1-17.2-23.3-24.1-35.8-15.6-28.2-27.1-59.4-48.5-83.5-2.6-2.9-5.4-5.7-8.4-8.3z"/><path class="f" d="m750 245.8v254.2h-365.8c1.2-10.7 3.5-21.3 6.8-31.6 11.4-35 36.2-65.6 67.6-84.3 16.6-9.9 35-16.5 54.3-18.6 25.1-2.8 53.5 0.6 72.8-15.7 11.7-9.8 17.3-24.7 24.6-38.1 20.7-38 59.6-67.1 102.8-70.2 12.4-0.9 25 0.7 36.9 4.3z"/><path class="g" d="m647.3 500h-486c1.5-13.7 4.9-27.2 10-40.1 11.7-29.9 35.1-58.4 66.9-62.9 13.7-2 27.2 0.7 40.3 5.5 18.7 6.9 39.6 1.3 52.5-14 9-10.8 20.7-19.4 33.8-24.6 24.2-9.6 52.9-7.2 75.2 6.2 6.6 4 12.7 8.8 18.6 14 16.7 14.7 31.7 32 52.7 38.4 21.9 6.6 45.8-0.1 68.2 4.4 32.9 6.6 57 36.6 66.5 68.7q0.7 2.2 1.3 4.4z"/><circle class="f" cx="195.4" cy="155.8" r="34.1"/><circle class="f" cx="597.5" cy="259" r="11.7"/><circle class="f" cx="97.5" cy="396.5" r="5.8"/><circle class="f" cx="653.1" cy="213.6" r="5.8"/><path class="h" d="m533.6-35.8c-31.2-3.7-63.8 9.3-83.9 33.4-15.9 19-23.7 43.4-29.8 67.3-6.1 24-11.1 48.6-22.5 70.6-11.4 21.9-30.8 41.3-55.1 45.9-35.4 6.6-69.1-19.8-89-49.8-19.9-30.1-31.9-65.3-55.1-92.9-26.7-31.8-67.9-50.9-109.5-50.9"/><path class="h" d="m519.7-35.9c-29.3-3.4-59.8 8.8-78.7 31.4-14.8 17.8-22.1 40.6-27.9 63.1-5.7 22.5-10.4 45.6-21.1 66.1-10.7 20.6-28.9 38.8-51.7 43-33.2 6.2-64.7-18.5-83.4-46.6-18.6-28.2-29.8-61.2-51.6-87.1-25.1-29.8-63.7-47.7-102.7-47.7"/><path class="h" d="m505.7-35.9c-27.2-3.2-55.8 8.2-73.4 29.3-13.8 16.6-20.6 37.9-26 58.9-5.4 20.9-9.7 42.5-19.7 61.7-10 19.2-26.9 36.1-48.2 40.1-31 5.8-60.4-17.3-77.9-43.6-17.4-26.2-27.8-57.1-48.1-81.2-23.5-27.8-59.5-44.5-95.9-44.5"/><path class="h" d="m491.8-35.9c-25.3-3-51.8 7.6-68.1 27.1-12.9 15.5-19.2 35.2-24.2 54.7-5 19.5-9 39.5-18.3 57.3-9.3 17.8-25 33.6-44.8 37.3-28.7 5.3-56.1-16.1-72.2-40.5-16.2-24.4-25.9-53-44.8-75.4-21.7-25.8-55.2-41.4-88.9-41.3"/><path class="h" d="m477.9-36c-23.4-2.7-47.8 7-62.9 25.1-11.9 14.2-17.7 32.5-22.3 50.5-4.6 17.9-8.3 36.4-16.9 52.9-8.6 16.4-23.1 31-41.3 34.3-26.6 5-51.8-14.8-66.7-37.3-14.9-22.5-23.9-48.9-41.3-69.6-20.1-23.8-51-38.2-82.1-38.1"/><path class="h" d="m306 572.5c-6.9-25.1-11.9-52.4-2.3-76.6 12.6-31.7 47.6-49.4 81.4-53.5 33.9-4.1 68 2.7 102 5.2 34 2.6 70.4 0.4 98.4-19 38.9-27 51.6-79.5 86.7-111.2 29.2-26.5 73.4-35.2 110.5-21.8"/><path class="h" d="m331.8 572.5c-6.5-23.7-11.3-49.6-2.2-72.5 11.9-29.9 45-46.7 77-50.6 32-3.8 64.3 2.5 96.4 5 32.2 2.4 66.6 0.3 93.2-18.1 36.7-25.4 48.8-75.1 82-105.1 27.6-25 69.4-33.3 104.5-20.7"/><path class="h" d="m357.5 572.5c-6.1-22.4-10.6-46.7-2-68.3 11.2-28.3 42.4-44.1 72.6-47.7 30.2-3.7 60.6 2.3 90.9 4.6 30.3 2.3 62.8 0.4 87.8-17 34.7-24 46.1-70.8 77.3-99.1 26.1-23.6 65.5-31.4 98.6-19.5"/><path class="h" d="m383.3 572.5c-5.8-21-10-43.9-2-64.2 10.6-26.5 39.9-41.4 68.3-44.8 28.3-3.4 56.9 2.2 85.4 4.4 28.5 2.2 59 0.3 82.5-16 32.5-22.6 43.2-66.6 72.6-93.1 24.5-22.2 61.5-29.5 92.6-18.3"/><path class="h" d="m409 572.5c-5.4-19.6-9.3-41.1-1.8-60 9.9-24.9 37.3-38.8 63.8-42 26.6-3.2 53.3 2.1 79.9 4.1 26.7 2.1 55.2 0.3 77.2-14.9 30.5-21.1 40.5-62.3 68-87.2 22.9-20.7 57.5-27.5 86.6-17.1"/><path class="h" d="m-7.4 199.6c-5.1 17.5 3.9 36.4 16.9 49.2 12.9 12.7 29.5 21 44.8 30.9 15.2 9.9 29.9 22.6 35.7 39.8 10.3 30.7-10.7 62-20.7 92.7-15.1 46.6-3.3 100.9 29.8 137"/><path class="h" d="m-19.3 203.2c-5 17.5 3.9 36.4 16.9 49.2 13 12.7 29.5 21 44.8 30.9 15.2 9.9 30 22.6 35.7 39.8 10.3 30.7-10.6 62-20.6 92.8-15.1 46.5-3.4 100.8 29.7 136.9"/><path class="h" d="m-31.2 206.9c-5 17.4 4 36.3 16.9 49.1 13 12.8 29.6 21 44.8 30.9 15.3 10 30 22.6 35.8 39.9 10.2 30.6-10.7 61.9-20.7 92.7-15.1 46.5-3.3 100.8 29.7 137"/><path class="h" d="m-43 210.5c-5 17.4 3.9 36.3 16.9 49.1 12.9 12.8 29.5 21 44.8 30.9 15.2 10 30 22.6 35.7 39.9 10.3 30.7-10.7 61.9-20.7 92.7-15.1 46.6-3.3 100.8 29.8 137"/><path class="h" d="m575.8-186.9c2.6 18.1 18.4 31.7 35.5 38 17 6.4 35.5 7.2 53.5 10 18 2.9 36.6 8.4 48.9 21.9 21.8 23.8 15.4 60.9 18.9 93 5.1 48.7 38 93.5 82.9 113"/><path class="h" d="m566.5-178.7c2.5 18 18.4 31.6 35.4 38 17 6.3 35.6 7.1 53.5 10 18 2.8 36.6 8.4 48.9 21.8 21.9 23.8 15.5 60.9 18.9 93.1 5.2 48.7 38 93.5 82.9 113"/><path class="h" d="m557.1-170.6c2.5 18 18.4 31.6 35.4 38 17.1 6.4 35.6 7.2 53.6 10 17.9 2.9 36.5 8.4 48.8 21.8 21.9 23.9 15.5 60.9 18.9 93.1 5.2 48.7 38.1 93.5 83 113"/><path class="h" d="m547.7-162.5c2.6 18 18.4 31.7 35.5 38 17 6.4 35.5 7.2 53.5 10 18 2.9 36.6 8.4 48.9 21.8 21.9 23.9 15.4 61 18.9 93.1 5.1 48.7 38 93.5 82.9 113"/></svg>